<svg enable-background="new 0 0 969.1 100" height="23" viewBox="0 0 168.26916 23" width="168.26915" xmlns="http://www.w3.org/2000/svg"><g fill="#fff" transform="matrix(.49483649 0 0 .49483649 -155.63597 -13.241824)"><path d="m358.64 67.28-11.23-19.46h-3.23l14.46 25.04 14.47-25.04h-3.23z"/><path d="m358.64 73.24-.16-.28-14.63-25.33h3.66l.05.09 11.07 19.18 11.13-19.27h3.66l-.17.29zm-14.13-25.24 14.13 24.48 14.14-24.48h-2.78l-11.35 19.65-.16-.28-11.19-19.37z"/><path d="m355.56 47.82h-3.19l6.27 11.29 6.28-11.29h-3.2l-3.08 5.54z"/><path d="m358.64 59.5-.17-.3-6.43-11.58h3.63l.06.1 2.91 5.25 2.97-5.35h3.62l-.16.28zm-5.95-11.5 5.95 10.72 5.95-10.72h-2.76l-3.19 5.75-.17-.3-3.02-5.45z"/><path d="m314.71 50.61h22.26v-2.79h-19.47v-18.08h19.47v-2.79h-22.26z"/><path d="m337.16 50.8h-22.64v-24.04h22.64v3.17h-19.47v17.7h19.47zm-22.26-.38h21.89v-2.42h-19.47v-18.45h19.47v-2.41h-21.89z"/><path d="m321.66 43.65h15.31v-2.79h-12.52v-4.16h12.52v-2.8h-15.31z"/><path d="m337.16 43.84h-15.69v-10.12h15.69v3.17h-12.52v3.79h12.52zm-15.31-.38h14.93v-2.41h-12.52v-4.54h12.52v-2.41h-14.93z"/><path d="m324.46 54.32h-2.8v10.2h15.31v-2.79h-12.51z"/><path d="m337.16 64.71h-15.69v-10.58h3.17v7.41h12.52zm-15.31-.38h14.93v-2.41h-12.52v-7.41h-2.41z"/><path d="m317.5 54.32h-2.79v17.16h22.26v-2.8h-19.47z"/><path d="m337.16 71.66h-22.64v-17.53h3.17v14.36h19.47zm-22.26-.37h21.89v-2.41h-19.47v-14.37h-2.41v16.78z"/><path d="m380.46 71.48h22.27v-2.8h-19.47v-18.07h19.47v-2.79h-22.27z"/><path d="m402.91 71.66h-22.64v-24.03h22.64v3.17h-19.47v17.7h19.47zm-22.26-.37h21.88v-2.41h-19.47v-18.46h19.47v-2.42h-21.88z"/><path d="m387.42 64.52h15.31v-2.79h-12.52v-4.17h12.52v-2.79h-15.31z"/><path d="m402.91 64.71h-15.69v-10.13h15.69v3.17h-12.51v3.79h12.51zm-15.3-.38h14.93v-2.41h-12.51v-4.54h12.51v-2.41h-14.93z"/><path d="m387.42 44.1h2.79v-7.4h12.52v-2.8h-15.31z"/><path d="m390.4 44.29h-3.17v-10.57h15.69v3.17h-12.52zm-2.79-.38h2.42v-7.41h12.51v-2.41h-14.93z"/><path d="m380.46 26.95v17.15h2.8v-14.36h19.47v-2.79z"/><path d="m383.45 44.29h-3.17v-17.53h22.64v3.17h-19.47zm-2.8-.38h2.41v-14.36h19.47v-2.41h-21.88z"/><path d="m494.24 30.05c7.48 0 11.79 6.71 11.79 16.3 0 9.45-4.32 16.16-11.79 16.16-7.39 0-11.7-6.66-11.7-16.21s4.31-16.25 11.7-16.25zm0 4.79c-3.41 0-5.9 4.32-5.9 11.46s2.49 11.41 5.9 11.41c3.55 0 6.09-4.27 6.09-11.41s-2.54-11.46-6.09-11.46zm18.61 37.55v-45.46h5.95v45.46z"/><path d="m525.34 66.44v-4.75h41.05v4.75zm4.94-12.85v-23.26h5.95v7.24h19.32v-7.33h5.95v23.35zm25.27-11.41h-19.32v6.66h19.32z"/><path d="m569.44 54.65v-4.8h15.34v-6.23h5.95v6.23h19.75v4.8zm36.25-25.85c0 7.96-.48 15.01-1.44 18.89l-5.75-.62c.48-1.68.81-3.79 1.01-5.99l-25.75 1.2-.72-4.51 26.66-1.1c.05-1.1 0-2.16 0-3.17h-25.08v-4.7zm-31.03 42.39v-13.72h5.95v9.01h25.17v4.7h-31.12z"/><path d="m636.93 43.9v4.17h17.64v4.79h-41.04v-4.79h17.45v-4.17h-11.98v-15.87h30.4v4.79h-24.45v6.33h24.84v4.75zm-18.17 27.91v-15.63h30.59v15.63zm24.69-11.07h-18.75v6.47h18.75z"/><path d="m443.01 26.95h2.27v45.92h-2.27z"/></g></svg>